/* XPM */
static char *image0[]={
"32 32 3 1",
". c None",
"a c #000080",
"# c #808080",
"................................",
"................................",
"................................",
"................................",
"................................",
"................................",
"................................",
"................................",
".......#aaaaaaaaa...............",
"......#aaaaaaaaaaa.........a....",
".....#aaa.......aaa.......aa....",
"....#aaa.........aaaa....aaa....",
"....aaa...........aaaa..aaaa....",
"....aa..............aaaaaaaa....",
"....aa...............aaaaaaa....",
"....aa...............aaaaaaa....",
"....aa..............aaaaaaaa....",
"....aa.............aaaaaaaaa....",
"....#aa...........aaaaaaaaaa....",
".....#aa.........aaaaaaaaaaa....",
"......aa#.......................",
".......aa#......................",
"................................",
"................................",
"................................",
"................................",
"................................",
"................................",
"................................",
"................................",
"................................",
"................................"};
