/* XPM */
static char *image4[]={
"32 32 3 1",
". c None",
"# c #000080",
"a c #808080",
"................................",
"................................",
"................................",
"................................",
"................................",
"................................",
"................................",
"................................",
"................................",
"...............#########a.......",
"....#.........###########a......",
"....##.......###.......###a.....",
"....###....####.........###a....",
"....####..####...........###....",
"....########..............##....",
"....#######...............##....",
"....#######...............##....",
"....########..............##....",
"....#########.............##....",
"....##########...........##a....",
"....###########.........##a.....",
".......................a##......",
"......................a##.......",
"................................",
"................................",
"................................",
"................................",
"................................",
"................................",
"................................",
"................................",
"................................"};
