/* XPM */
static char *image3[]={
"25 25 2 1",
"# c #000000",
". c #ffffff",
".........................",
".........................",
".........................",
".........######..........",
".......##########........",
"......####....####.......",
".....###........###......",
"....#####........###.....",
"....##.###........##.....",
"...###..###.......###....",
"...##....###.......##....",
"...##.....###......##....",
"...##......###.....##....",
"...##.......###....##....",
"...###.......###..###....",
"....##........###.##.....",
"....###........#####.....",
".....###........###......",
"......####....####.......",
".......##########........",
".........######..........",
".........................",
".........................",
".........................",
"........................."};
