/* XPM */
static char *image6[]={
"22 22 165 2",
"Qt c None",
".h c #000000",
".o c #010101",
"aF c #030303",
"#n c #060606",
".H c #080808",
".r c #0c0c0c",
".q c #121212",
"#V c #124e7f",
"#m c #131313",
".G c #161615",
"aI c #172cac",
".6 c #181818",
"aH c #1841b2",
".p c #191919",
"#8 c #1928ba",
"#W c #1929ba",
"aj c #192aba",
"av c #1a31c2",
"aE c #1b1b1b",
"aD c #1b2bc8",
"at c #1c79d2",
"ah c #1c7dd4",
"aA c #1d1d1d",
"aC c #1d7ad7",
"#6 c #1d7eda",
".5 c #1e1e1e",
"#7 c #1e8ae0",
"ai c #1e8de0",
"au c #1e90e0",
".g c #242424",
"#5 c #313b6c",
"aB c #343d8d",
"#3 c #393939",
".f c #3d3d3d",
"ak c #433967",
"#C c #434442",
"aw c #443c6e",
"#l c #454643",
"as c #454fa3",
".4 c #474845",
"#R c #474846",
".e c #484848",
"aG c #4856a0",
".d c #4a4a4a",
"#9 c #4c416a",
".c c #4c4c4c",
"ag c #4c5cae",
"#X c #4d4669",
"#z c #4dc2b2",
"#P c #4e445a",
"#G c #53504e",
".l c #545454",
".b c #555555",
"#Q c #595274",
"#i c #62b2a2",
".a c #676767",
"#j c #69b6a3",
".F c #6f6f6a",
".K c #6f8b89",
"ax c #747474",
"#a c #76a1a0",
".# c #797979",
"#A c #7bd7e8",
"ay c #7d7d7d",
"#U c #7e7d73",
".I c #808080",
".O c #81a3b8",
"az c #828282",
"#y c #82d1c0",
"#S c #848484",
"#O c #857e7c",
"#F c #86add2",
"#k c #86cdda",
"#N c #89b1bd",
"#h c #8acec3",
"#o c #8c8c8c",
"#L c #8cbbca",
"al c #8d8d8d",
".s c #8f8f8f",
"#H c #909090",
"#K c #90bac9",
"#M c #91c4cf",
"#t c #929292",
".X c #94c2cf",
".N c #94c2d0",
".W c #959595",
"#B c #96b9cb",
".3 c #97bede",
".L c #98c2ce",
".P c #9b9b9b",
"a. c #9c9c9c",
"am c #9d9d9d",
"#s c #9dbdc4",
"#b c #9e9e9e",
"#Y c #a0a0a0",
"an c #a6a6a6",
"#v c #a6d1d6",
".Z c #a7a1a1",
"#I c #a7a7a7",
"#D c #a7edde",
".M c #a8d8e5",
"#u c #aeaeae",
"ac c #b1b1b1",
"a# c #b2b2b2",
".2 c #b5cbd6",
".V c #b6b6b6",
"ar c #b7b7b7",
"#Z c #b8b8b8",
"#2 c #bababa",
".Q c #babbb9",
"aq c #bbbbbb",
"#c c #bcbcbc",
".8 c #bfbfbf",
"ap c #c0c0c0",
".1 c #c1d9d2",
"aa c #c8c8c8",
"ab c #cacaca",
"ao c #cbcbcb",
".Y c #ccf8f1",
"#J c #cdcdcd",
".R c #cecece",
"#p c #d1f9f4",
"#4 c #d5d5d5",
"#w c #d5ece4",
".9 c #d5f6f5",
"#0 c #d6d6d6",
".U c #d7d7d7",
"af c #d8d8d8",
".x c #dadada",
".y c #dbdbdb",
".w c #dcdcdc",
"#e c #dcf7f4",
"#1 c #dddddd",
"ae c #dedede",
".E c #dfdfdf",
".z c #e0e0e0",
"#g c #e0ebe4",
"#q c #e1edea",
"#d c #e2e2e2",
"#x c #e2ebe2",
".0 c #e2eee5",
".v c #e3e3e3",
"## c #e3e7d5",
"#r c #e4ebd9",
"#E c #e4f2ec",
".u c #e5e5e5",
".S c #e7e7e7",
".k c #e9e9e9",
".A c #ebebeb",
".D c #ededed",
".t c #f0f0f0",
"#T c #f4f4f4",
".n c #f6f6f6",
".C c #f7f7f7",
"#f c #f8f5f2",
".m c #f8f8f8",
".7 c #f9f9f9",
"ad c #fafafa",
"#. c #fbf0eb",
".J c #fbfbfb",
".T c #fcfcfc",
".B c #fdfdfd",
".j c #fefefe",
".i c #ffffff",
"QtQtQtQtQtQtQtQtQtQtQtQtQtQtQtQtQtQtQtQtQtQt",
"QtQtQtQtQt.#.a.b.c.d.d.e.f.g.hQtQtQtQtQtQtQt",
"QtQtQtQt.#.i.i.i.i.i.i.i.i.i.h.hQtQtQtQtQtQt",
"QtQtQtQt.a.j.j.j.j.j.j.i.i.i.h.k.hQtQtQtQtQt",
"QtQtQtQt.l.m.n.o.p.q.r.s.j.i.h.t.u.hQtQtQtQt",
"QtQtQtQt.e.v.w.x.y.z.A.n.B.B.h.C.D.E.hQtQtQt",
"QtQtQt.h.h.h.h.h.F.G.H.I.n.J.h.h.h.h.h.hQtQt",
"QtQt.h.K.L.M.N.O.h.P.Q.R.S.n.T.j.U.V.W.hQtQt",
"Qt.h.X.Y.Z.0.1.2.3.h.4.5.6.q.r.s.7.v.8.hQtQt",
"Qt.h.9#..###.F.F.F#a.h#b#c#d.m.j.7.v#c.hQtQt",
"Qt.h#e#f.a#g#h#i#j#k.h#l#m.r#n#o.7.v#c.hQtQt",
"Qt.h#p#q.a#r.F.F.F#s.h#t#u.x.n.j.7.v#c.hQtQt",
"Qt.h#v#w.##x#y#z#A#B.h#C#m#m.q#o.7.v#c.hQtQt",
"QtQt.h#D.Z#E.F.F#F.h#G#H#I#J.A.7.m.v#c.hQtQt",
"QtQtQt.h#K#L#M#N.h#O#P#Q#R#m.q#S#T#d#c.hQtQt",
"QtQtQtQt.h.h.h.h.Z#U#V#W#X#Y#Z#0.S#1#2.hQtQt",
"QtQtQtQt#3.t.v.x#4#5#6#7#8#9a.a#aaabac.hQtQt",
"QtQtQtQt.6ad.kae.yafagahaiajakalamana..oQtQt",
"QtQtQtQt.haeaoapaqaqarasatauavawaxayaz.oQtQt",
"QtQtQtQtQt.h.h.h.h.haA.oaBaCaiaD.HaEaFQtQtQt",
"QtQtQtQtQtQtQtQtQtQtQtQtQtaGaHaIQtQtQtQtQtQt",
"QtQtQtQtQtQtQtQtQtQtQtQtQtQtQtQtQtQtQtQtQtQt"};
